<svg width="16" height="17" viewBox="0 0 16 17" fill="none" xmlns="http://www.w3.org/2000/svg">
<path d="M8.68603 4.83268C8.68603 4.46449 8.38756 4.16602 8.01937 4.16602C7.65118 4.16602 7.3527 4.46449 7.3527 4.83268V8.49935C7.3527 8.67616 7.42294 8.84573 7.54796 8.97075L9.54796 10.9708C9.80831 11.2311 10.2304 11.2311 10.4908 10.9708C10.7511 10.7104 10.7511 10.2883 10.4908 10.0279L8.68603 8.22321V4.83268Z" fill="#787A80"/>
<path fill-rule="evenodd" clip-rule="evenodd" d="M8.01937 1.16602C3.96928 1.16602 0.686035 4.44926 0.686035 8.49935C0.686035 12.5494 3.96928 15.8327 8.01937 15.8327C12.0695 15.8327 15.3527 12.5494 15.3527 8.49935C15.3527 4.44926 12.0695 1.16602 8.01937 1.16602ZM2.01937 8.49935C2.01937 5.18564 4.70566 2.49935 8.01937 2.49935C11.3331 2.49935 14.0194 5.18564 14.0194 8.49935C14.0194 11.8131 11.3331 14.4993 8.01937 14.4993C4.70566 14.4993 2.01937 11.8131 2.01937 8.49935Z" fill="#787A80"/>
<path d="M8.68603 4.83268C8.68603 4.46449 8.38756 4.16602 8.01937 4.16602C7.65118 4.16602 7.3527 4.46449 7.3527 4.83268V8.49935C7.3527 8.67616 7.42294 8.84573 7.54796 8.97075L9.54796 10.9708C9.80831 11.2311 10.2304 11.2311 10.4908 10.9708C10.7511 10.7104 10.7511 10.2883 10.4908 10.0279L8.68603 8.22321V4.83268Z" stroke="black" stroke-linecap="round" stroke-linejoin="round"/>
<path fill-rule="evenodd" clip-rule="evenodd" d="M8.01937 1.16602C3.96928 1.16602 0.686035 4.44926 0.686035 8.49935C0.686035 12.5494 3.96928 15.8327 8.01937 15.8327C12.0695 15.8327 15.3527 12.5494 15.3527 8.49935C15.3527 4.44926 12.0695 1.16602 8.01937 1.16602ZM2.01937 8.49935C2.01937 5.18564 4.70566 2.49935 8.01937 2.49935C11.3331 2.49935 14.0194 5.18564 14.0194 8.49935C14.0194 11.8131 11.3331 14.4993 8.01937 14.4993C4.70566 14.4993 2.01937 11.8131 2.01937 8.49935Z" stroke="black" stroke-linecap="round" stroke-linejoin="round"/>
</svg>
