<svg width="16" height="15" viewBox="0 0 16 15" fill="none" xmlns="http://www.w3.org/2000/svg">
<path fill-rule="evenodd" clip-rule="evenodd" d="M5.01969 0.333984C5.38788 0.333984 5.68636 0.632461 5.68636 1.00065V1.33399L10.353 1.334V1.00065C10.353 0.632462 10.6515 0.333985 11.0197 0.333984C11.3879 0.333984 11.6864 0.632461 11.6864 1.00065V1.334L12.5197 1.33401C13.9925 1.33401 15.1864 2.52792 15.1864 4.00067V12.0006C15.1864 13.4734 13.9925 14.6673 12.5197 14.6673L3.51969 14.6673C2.04693 14.6673 0.853027 13.4734 0.853027 12.0007L0.853028 5.50078L0.853028 4.00065C0.853028 2.52789 2.04694 1.33398 3.5197 1.33399L4.35303 1.33399V1.00065C4.35303 0.632461 4.6515 0.333984 5.01969 0.333984ZM4.35303 2.66732L3.5197 2.66732C2.78332 2.66732 2.18636 3.26427 2.18636 4.00065V4.83398H13.853V4.00067C13.853 3.26429 13.2561 2.66734 12.5197 2.66734L11.6864 2.66734V3.00065C11.6864 3.36884 11.3879 3.66732 11.0197 3.66732C10.6515 3.66732 10.353 3.36884 10.353 3.00065V2.66734L5.68636 2.66733V3.00065C5.68636 3.36884 5.38788 3.66732 5.01969 3.66732C4.6515 3.66732 4.35303 3.36884 4.35303 3.00065V2.66732ZM13.853 6.16732H2.18636L2.18636 12.0007C2.18636 12.737 2.78331 13.334 3.51969 13.334L12.5197 13.334C13.2561 13.334 13.853 12.737 13.853 12.0006V6.16732Z" fill="#787A80"/>
</svg>
